/* XPM */
static char *a952eae0aa5e4371b04c165c1e96e700VIeeZskPspNGXIl6[] = {
/* columns rows colors chars-per-pixel */
"128 128 2 1 ",
"  c None",
". c #2828C8",
/* pixels */
"                                                       ..................                                                       ",
"                                                  ............................                                                  ",
"                                              ....................................                                              ",
"                                           ..........................................                                           ",
"                                        ................................................                                        ",
"                                      ....................................................                                      ",
"                                    ........................................................                                    ",
"                                  ............................................................                                  ",
"                                ................................................................                                ",
"                              ....................................................................                              ",
"                             ......................................................................                             ",
"                           ..........................................................................                           ",
"                          ............................................................................                          ",
"                         ..............................................................................                         ",
"                       ..................................................................................                       ",
"                      ....................................................................................                      ",
"                     ......................................................................................                     ",
"                    ........................................................................................                    ",
"                   ............................................  ............................................                   ",
"                  ............................................   .............................................                  ",
"                 .............................................    .............................................                 ",
"                .............................................      .............................................                ",
"               ..............................................      ..............................................               ",
"              ..............................................        ..............................................              ",
"              ..............................................        ..............................................              ",
"             ..............................................          ..............................................             ",
"            ..............................................           ...............................................            ",
"           ...............................................            ...............................................           ",
"           ..............................................              ..............................................           ",
"          ...............................................              ...............................................          ",
"         ...............................................                ...............................................         ",
"         ...............................................                ...............................................         ",
"        ...............................................                  ...............................................        ",
"        ..............................................                    ..............................................        ",
"       ...............................................                    ...............................................       ",
"       ..............................................                      ..............................................       ",
"      ...............................................                      ...............................................      ",
"      ..............................................                        ..............................................      ",
"     ..............................................                         ...............................................     ",
"     ..............................................                          ..............................................     ",
"    ............................................                                ............................................    ",
"    .........................................                                      .........................................    ",
"    .......................................                                          .......................................    ",
"   .......................................                                            .......................................   ",
"   ......................................                                              ......................................   ",
"   .....................................                                                .....................................   ",
"  .....................................                                                  .....................................  ",
"  ....................................                                                    ....................................  ",
"  ...................................                                                      ...................................  ",
"  ..................................                                                        ..................................  ",
" ..................................                                                         ................................... ",
" ..................................                                                          .................................. ",
" .................................                                                            ................................. ",
" ................................                                                             ................................. ",
" ................................                                                              ................................ ",
"................................                                                                ................................",
"................................                                                                ................................",
"...............................                                                                  ...............................",
"..............................                                                                    ..............................",
"..............................                                                                    ..............................",
".............................                                                                      .............................",
".............................                                                                      .............................",
"............................                                                                        ............................",
"............................                                                                        ............................",
"...........................                                                                          ...........................",
"..........................                                                                           ...........................",
"..........................                                                                            ..........................",
".........................                                                                             ..........................",
".........................                                                                              .........................",
"........................                                                                                ........................",
"........................                                                                                ........................",
".........................                                                                               ........................",
"..........................                                                                             .........................",
" ..........................                                                                           ......................... ",
" ...........................                                                                         .......................... ",
" ............................                                                                       ........................... ",
" .............................                                                                    ............................. ",
" ..............................                                                                  .............................. ",
"  ..............................                                                                ..............................  ",
"  ...............................                                                              ...............................  ",
"  ................................                                                            ................................  ",
"  .................................                                                          .................................  ",
"   .................................                                                        .................................   ",
"   ..................................                                                      ..................................   ",
"   ...................................                                                    ...................................   ",
"    ...................................                                                  ...................................    ",
"    ....................................                                                ....................................    ",
"    .....................................                                              .....................................    ",
"     .....................................                                            .....................................     ",
"     ......................................                                          ......................................     ",
"      ......................................                                        ......................................      ",
"      .......................................                                      .......................................      ",
"       .......................................                                    .......................................       ",
"       ........................................                                  ........................................       ",
"        ........................................                                ........................................        ",
"        .........................................                              .........................................        ",
"         .........................................                            .........................................         ",
"         ..........................................                          ..........................................         ",
"          ..........................................                        ..........................................          ",
"           ..........................................                      ..........................................           ",
"           ...........................................                    ...........................................           ",
"            ...........................................                  ...........................................            ",
"             ...........................................                ...........................................             ",
"              ...........................................              ...........................................              ",
"              ............................................            ............................................              ",
"               ............................................          ............................................               ",
"                ............................................        ............................................                ",
"                 ............................................      ............................................                 ",
"                  ............................................    ............................................                  ",
"                   ............................................  ............................................                   ",
"                    ........................................................................................                    ",
"                     ......................................................................................                     ",
"                      ....................................................................................                      ",
"                       ..................................................................................                       ",
"                         ..............................................................................                         ",
"                          ............................................................................                          ",
"                           ..........................................................................                           ",
"                             ......................................................................                             ",
"                              ....................................................................                              ",
"                                ................................................................                                ",
"                                  ............................................................                                  ",
"                                    ........................................................                                    ",
"                                      ....................................................                                      ",
"                                        ................................................                                        ",
"                                           ..........................................                                           ",
"                                              ....................................                                              ",
"                                                  ............................                                                  ",
"                                                       ..................                                                       "
};
