/* XPM */
static char *_8096dc7d6d84354cab9b437356e5c12Nt9IHdw9llPK5KRq[] = {
/* columns rows colors chars-per-pixel */
"16 16 2 1 ",
"  c None",
". c #2828C8",
/* pixels */
"     ......     ",
"   ..........   ",
"  ............  ",
" ......  ...... ",
" ......  ...... ",
".....      .....",
"....        ....",
"....        ....",
"...          ...",
"....        ....",
".....      .....",
" .....    ..... ",
" ......  ...... ",
"  ............  ",
"   ..........   ",
"     ......     "
};
