/* XPM */
static char *df39c066721c43cfa9783fb7fa844997ohCGTbsLCT4UPj1d[] = {
/* columns rows colors chars-per-pixel */
"64 64 2 1 ",
"  c None",
". c #2828C8",
/* pixels */
"                          ............                          ",
"                      ....................                      ",
"                    ........................                    ",
"                 ..............................                 ",
"                ................................                ",
"              ....................................              ",
"             ......................................             ",
"           ..........................................           ",
"          ............................................          ",
"         ......................  ......................         ",
"        .......................  .......................        ",
"       .......................    .......................       ",
"       .......................    .......................       ",
"      .......................      .......................      ",
"     .......................       ........................     ",
"     .......................        .......................     ",
"    .......................          .......................    ",
"   ........................          ........................   ",
"   .......................            .......................   ",
"   .......................            .......................   ",
"  .....................                  .....................  ",
"  ...................                      ...................  ",
" ...................                        ................... ",
" ..................                          .................. ",
" .................                            ................. ",
" .................                            ................. ",
".................                              .................",
"................                                ................",
"................                                ................",
"...............                                  ...............",
"..............                                   ...............",
"..............                                    ..............",
".............                                      .............",
".............                                      .............",
"............                                        ............",
"............                                        ............",
".............                                      .............",
"..............                                    ..............",
" ..............                                  .............. ",
" ...............                                ............... ",
" ................                              ................ ",
" .................                            ................. ",
"  .................                          .................  ",
"  ..................                        ..................  ",
"   ..................                      ..................   ",
"   ...................                    ...................   ",
"   ....................                  ....................   ",
"    ....................                ....................    ",
"     ....................              ....................     ",
"     .....................            .....................     ",
"      .....................          .....................      ",
"       .....................        .....................       ",
"       ......................      ......................       ",
"        ......................    ......................        ",
"         ......................  ......................         ",
"          ............................................          ",
"           ..........................................           ",
"             ......................................             ",
"              ....................................              ",
"                ................................                ",
"                 ..............................                 ",
"                    ........................                    ",
"                      ....................                      ",
"                          ............                          "
};
