/* XPM */
static char *ddb1328f5ba54b3f95dcef07927d5f19YHgRzQc7tZWDk3yO[] = {
/* columns rows colors chars-per-pixel */
"32 32 2 1 ",
"  c None",
". c #2828C8",
/* pixels */
"            ........            ",
"         ..............         ",
"       ..................       ",
"      ....................      ",
"     ......................     ",
"    ...........  ...........    ",
"   ............  ............   ",
"  ............    ............  ",
"  ............    ............  ",
" ............      ............ ",
" ..........          .......... ",
" .........            ......... ",
".........              .........",
"........                ........",
"........                ........",
".......                  .......",
".......                  .......",
"......                    ......",
".......                  .......",
"........                ........",
" ........              ........ ",
" .........            ......... ",
" ..........          .......... ",
"  ..........        ..........  ",
"  ...........      ...........  ",
"   ...........    ...........   ",
"    ...........  ...........    ",
"     ......................     ",
"      ....................      ",
"       ..................       ",
"         ..............         ",
"            ........            "
};
